<svg xmlns="http://www.w3.org/2000/svg" viewBox="0 0 736.8 510.2" width="736.8" height="510.2">
  <defs>
    <linearGradient id="bg-gradient" x1="0%" y1="0%" x2="100%" y2="100%">
      <stop offset="0%" stop-color="#8e2de2"/>
      <stop offset="50%" stop-color="#6b22e1"/>
      <stop offset="100%" stop-color="#4a00e0"/>
    </linearGradient>
  </defs>
  <rect x="0" y="0" width="736.8" height="510.2" fill="url(#bg-gradient)" rx="18" ry="18"/>
  <g transform="translate(44, 44)">
    <rect x="0" y="0" width="648.8" height="422.2" fill="#1e1e1e" rx="10" ry="10"/>
    <g class="title-bar">
      <circle cx="16" cy="20" r="6" fill="#ff5f56"/>
    <circle cx="36" cy="20" r="6" fill="#ffbd2e"/>
    <circle cx="56" cy="20" r="6" fill="#27c93f"/>
    <text x="324.4" y="24.67" fill="#c9d1d9" font-family="'SF Mono', 'Monaco', 'Menlo', 'Ubuntu Mono', 'Consolas', 'Courier New', monospace" font-size="12" text-anchor="middle" opacity="0.8">grfti — chaining</text>
    </g>
    <g class="glyphs">
      <rect x="257.2" y="143.2" width="8.4" height="20.3" fill="#ff7a59" shape-rendering="crispEdges"/>
      <rect x="265.6" y="143.2" width="8.4" height="20.3" fill="#fc7a5f" shape-rendering="crispEdges"/>
      <rect x="274" y="143.2" width="8.4" height="20.3" fill="#f87965" shape-rendering="crispEdges"/>
      <rect x="282.4" y="143.2" width="8.4" height="20.3" fill="#f5796b" shape-rendering="crispEdges"/>
      <rect x="290.8" y="143.2" width="8.4" height="20.3" fill="#f17970" shape-rendering="crispEdges"/>
      <rect x="299.2" y="143.2" width="8.4" height="20.3" fill="#ee7876" shape-rendering="crispEdges"/>
      <rect x="307.6" y="143.2" width="8.4" height="20.3" fill="#ea787b" shape-rendering="crispEdges"/>
      <rect x="316" y="143.2" width="8.4" height="20.3" fill="#e7777f" shape-rendering="crispEdges"/>
      <rect x="324.4" y="143.2" width="8.4" height="20.3" fill="#e37784" shape-rendering="crispEdges"/>
      <rect x="332.8" y="143.2" width="8.4" height="20.3" fill="#e07688" shape-rendering="crispEdges"/>
      <rect x="341.2" y="143.2" width="8.4" height="20.3" fill="#dd758d" shape-rendering="crispEdges"/>
      <rect x="349.6" y="143.2" width="8.4" height="20.3" fill="#d97491" shape-rendering="crispEdges"/>
      <rect x="358" y="143.2" width="8.4" height="20.3" fill="#d67495" shape-rendering="crispEdges"/>
      <rect x="366.4" y="143.2" width="8.4" height="20.3" fill="#d37399" shape-rendering="crispEdges"/>
      <rect x="374.8" y="143.2" width="8.4" height="20.3" fill="#cf729d" shape-rendering="crispEdges"/>
      <rect x="383.2" y="143.2" width="8.4" height="20.3" fill="#cc71a1" shape-rendering="crispEdges"/>
      <rect x="391.6" y="143.2" width="8.4" height="20.3" fill="#c970a5" shape-rendering="crispEdges"/>
      <rect x="400" y="143.2" width="8.4" height="20.3" fill="#c56fa9" shape-rendering="crispEdges"/>
      <rect x="408.4" y="143.2" width="8.4" height="20.3" fill="#c26ead" shape-rendering="crispEdges"/>
      <rect x="416.8" y="143.2" width="8.4" height="20.3" fill="#bf6cb0" shape-rendering="crispEdges"/>
      <rect x="425.2" y="143.2" width="8.4" height="20.3" fill="#bc6bb4" shape-rendering="crispEdges"/>
      <rect x="433.6" y="143.2" width="8.4" height="20.3" fill="#b96ab7" shape-rendering="crispEdges"/>
      <rect x="442" y="143.2" width="8.4" height="20.3" fill="#b568bb" shape-rendering="crispEdges"/>
      <rect x="450.4" y="143.2" width="8.4" height="20.3" fill="#b267be" shape-rendering="crispEdges"/>
      <rect x="458.8" y="143.2" width="8.4" height="20.3" fill="#af65c2" shape-rendering="crispEdges"/>
      <rect x="467.2" y="143.2" width="8.4" height="20.3" fill="#ac64c5" shape-rendering="crispEdges"/>
      <rect x="475.6" y="143.2" width="8.4" height="20.3" fill="#a962c9" shape-rendering="crispEdges"/>
      <rect x="484" y="143.2" width="8.4" height="20.3" fill="#a660cc" shape-rendering="crispEdges"/>
      <rect x="492.4" y="143.2" width="8.4" height="20.3" fill="#a35ecf" shape-rendering="crispEdges"/>
      <rect x="500.8" y="143.2" width="8.4" height="20.3" fill="#a05cd3" shape-rendering="crispEdges"/>
      <rect x="509.2" y="143.2" width="8.4" height="20.3" fill="#9d5ad6" shape-rendering="crispEdges"/>
      <rect x="517.6" y="143.2" width="8.4" height="20.3" fill="#9a58d9" shape-rendering="crispEdges"/>
      <rect x="526" y="143.2" width="8.4" height="20.3" fill="#9855dd" shape-rendering="crispEdges"/>
      <rect x="534.4" y="143.2" width="8.4" height="20.3" fill="#9553e0" shape-rendering="crispEdges"/>
      <rect x="542.8" y="143.2" width="8.4" height="20.3" fill="#9250e3" shape-rendering="crispEdges"/>
      <rect x="551.2" y="143.2" width="8.4" height="20.3" fill="#8f4de6" shape-rendering="crispEdges"/>
      <rect x="559.6" y="143.2" width="8.4" height="20.3" fill="#8d4ae9" shape-rendering="crispEdges"/>
      <rect x="568" y="143.2" width="8.4" height="20.3" fill="#8a47ec" shape-rendering="crispEdges"/>
      <rect x="576.4" y="143.2" width="8.4" height="20.3" fill="#8843f0" shape-rendering="crispEdges"/>
      <rect x="584.8" y="143.2" width="8.4" height="20.3" fill="#8540f3" shape-rendering="crispEdges"/>
      <rect x="593.2" y="143.2" width="8.4" height="20.3" fill="#833bf6" shape-rendering="crispEdges"/>
      <rect x="601.6" y="143.2" width="8.4" height="20.3" fill="#8037f9" shape-rendering="crispEdges"/>
      <rect x="610" y="143.2" width="8.4" height="20.3" fill="#7e31fc" shape-rendering="crispEdges"/>
      <rect x="618.4" y="143.2" width="8.4" height="20.3" fill="#7c2bff" shape-rendering="crispEdges"/>
      <rect x="257.2" y="163.5" width="8.4" height="20.3" fill="#7c2bff" shape-rendering="crispEdges"/>
      <rect x="265.6" y="163.5" width="8.4" height="20.3" fill="#7e31fc" shape-rendering="crispEdges"/>
      <rect x="274" y="163.5" width="8.4" height="20.3" fill="#8037f9" shape-rendering="crispEdges"/>
      <rect x="282.4" y="163.5" width="8.4" height="20.3" fill="#833bf6" shape-rendering="crispEdges"/>
      <rect x="290.8" y="163.5" width="8.4" height="20.3" fill="#8540f3" shape-rendering="crispEdges"/>
      <rect x="299.2" y="163.5" width="8.4" height="20.3" fill="#8843f0" shape-rendering="crispEdges"/>
      <rect x="307.6" y="163.5" width="8.4" height="20.3" fill="#8a47ec" shape-rendering="crispEdges"/>
      <rect x="316" y="163.5" width="8.4" height="20.3" fill="#8d4ae9" shape-rendering="crispEdges"/>
      <rect x="324.4" y="163.5" width="8.4" height="20.3" fill="#8f4de6" shape-rendering="crispEdges"/>
      <rect x="332.8" y="163.5" width="8.4" height="20.3" fill="#9250e3" shape-rendering="crispEdges"/>
      <rect x="341.2" y="163.5" width="8.4" height="20.3" fill="#9553e0" shape-rendering="crispEdges"/>
      <rect x="349.6" y="163.5" width="8.4" height="20.3" fill="#9855dd" shape-rendering="crispEdges"/>
      <rect x="358" y="163.5" width="8.4" height="20.3" fill="#9a58d9" shape-rendering="crispEdges"/>
      <rect x="366.4" y="163.5" width="8.4" height="20.3" fill="#9d5ad6" shape-rendering="crispEdges"/>
      <rect x="374.8" y="163.5" width="8.4" height="20.3" fill="#a05cd3" shape-rendering="crispEdges"/>
      <rect x="383.2" y="163.5" width="8.4" height="20.3" fill="#a35ecf" shape-rendering="crispEdges"/>
      <rect x="391.6" y="163.5" width="8.4" height="20.3" fill="#a660cc" shape-rendering="crispEdges"/>
      <rect x="400" y="163.5" width="8.4" height="20.3" fill="#a962c9" shape-rendering="crispEdges"/>
      <rect x="408.4" y="163.5" width="8.4" height="20.3" fill="#ac64c5" shape-rendering="crispEdges"/>
      <rect x="416.8" y="163.5" width="8.4" height="20.3" fill="#af65c2" shape-rendering="crispEdges"/>
      <rect x="425.2" y="163.5" width="8.4" height="20.3" fill="#b267be" shape-rendering="crispEdges"/>
      <rect x="433.6" y="163.5" width="8.4" height="20.3" fill="#b568bb" shape-rendering="crispEdges"/>
      <rect x="442" y="163.5" width="8.4" height="20.3" fill="#b96ab7" shape-rendering="crispEdges"/>
      <rect x="450.4" y="163.5" width="8.4" height="20.3" fill="#bc6bb4" shape-rendering="crispEdges"/>
      <rect x="458.8" y="163.5" width="8.4" height="20.3" fill="#bf6cb0" shape-rendering="crispEdges"/>
      <rect x="467.2" y="163.5" width="8.4" height="20.3" fill="#c26ead" shape-rendering="crispEdges"/>
      <rect x="475.6" y="163.5" width="8.4" height="20.3" fill="#c56fa9" shape-rendering="crispEdges"/>
      <rect x="484" y="163.5" width="8.4" height="20.3" fill="#c970a5" shape-rendering="crispEdges"/>
      <rect x="492.4" y="163.5" width="8.4" height="20.3" fill="#cc71a1" shape-rendering="crispEdges"/>
      <rect x="500.8" y="163.5" width="8.4" height="20.3" fill="#cf729d" shape-rendering="crispEdges"/>
      <rect x="509.2" y="163.5" width="8.4" height="20.3" fill="#d37399" shape-rendering="crispEdges"/>
      <rect x="517.6" y="163.5" width="8.4" height="20.3" fill="#d67495" shape-rendering="crispEdges"/>
      <rect x="526" y="163.5" width="8.4" height="20.3" fill="#d97491" shape-rendering="crispEdges"/>
      <rect x="534.4" y="163.5" width="8.4" height="20.3" fill="#dd758d" shape-rendering="crispEdges"/>
      <rect x="542.8" y="163.5" width="8.4" height="20.3" fill="#e07688" shape-rendering="crispEdges"/>
      <rect x="551.2" y="163.5" width="8.4" height="20.3" fill="#e37784" shape-rendering="crispEdges"/>
      <rect x="559.6" y="163.5" width="8.4" height="20.3" fill="#e7777f" shape-rendering="crispEdges"/>
      <rect x="568" y="163.5" width="8.4" height="20.3" fill="#ea787b" shape-rendering="crispEdges"/>
      <rect x="576.4" y="163.5" width="8.4" height="20.3" fill="#ee7876" shape-rendering="crispEdges"/>
      <rect x="584.8" y="163.5" width="8.4" height="20.3" fill="#f17970" shape-rendering="crispEdges"/>
      <rect x="593.2" y="163.5" width="8.4" height="20.3" fill="#f5796b" shape-rendering="crispEdges"/>
      <rect x="601.6" y="163.5" width="8.4" height="20.3" fill="#f87965" shape-rendering="crispEdges"/>
      <rect x="610" y="163.5" width="8.4" height="20.3" fill="#fc7a5f" shape-rendering="crispEdges"/>
      <rect x="618.4" y="163.5" width="8.4" height="20.3" fill="#ff7a59" shape-rendering="crispEdges"/>
      <rect x="257.2" y="183.8" width="8.4" height="20.3" fill="#ff7a59" shape-rendering="crispEdges"/>
      <rect x="265.6" y="183.8" width="8.4" height="20.3" fill="#fc7a5f" shape-rendering="crispEdges"/>
      <rect x="274" y="183.8" width="8.4" height="20.3" fill="#f87965" shape-rendering="crispEdges"/>
      <rect x="282.4" y="183.8" width="8.4" height="20.3" fill="#f5796b" shape-rendering="crispEdges"/>
      <rect x="290.8" y="183.8" width="8.4" height="20.3" fill="#f17970" shape-rendering="crispEdges"/>
      <rect x="299.2" y="183.8" width="8.4" height="20.3" fill="#ee7876" shape-rendering="crispEdges"/>
      <rect x="307.6" y="183.8" width="8.4" height="20.3" fill="#ea787b" shape-rendering="crispEdges"/>
      <rect x="316" y="183.8" width="8.4" height="20.3" fill="#e7777f" shape-rendering="crispEdges"/>
      <rect x="324.4" y="183.8" width="8.4" height="20.3" fill="#e37784" shape-rendering="crispEdges"/>
      <rect x="332.8" y="183.8" width="8.4" height="20.3" fill="#e07688" shape-rendering="crispEdges"/>
      <rect x="341.2" y="183.8" width="8.4" height="20.3" fill="#dd758d" shape-rendering="crispEdges"/>
      <rect x="349.6" y="183.8" width="8.4" height="20.3" fill="#d97491" shape-rendering="crispEdges"/>
      <rect x="358" y="183.8" width="8.4" height="20.3" fill="#d67495" shape-rendering="crispEdges"/>
      <rect x="366.4" y="183.8" width="8.4" height="20.3" fill="#d37399" shape-rendering="crispEdges"/>
      <rect x="374.8" y="183.8" width="8.4" height="20.3" fill="#cf729d" shape-rendering="crispEdges"/>
      <rect x="383.2" y="183.8" width="8.4" height="20.3" fill="#cc71a1" shape-rendering="crispEdges"/>
      <rect x="391.6" y="183.8" width="8.4" height="20.3" fill="#c970a5" shape-rendering="crispEdges"/>
      <rect x="400" y="183.8" width="8.4" height="20.3" fill="#c56fa9" shape-rendering="crispEdges"/>
      <rect x="408.4" y="183.8" width="8.4" height="20.3" fill="#c26ead" shape-rendering="crispEdges"/>
      <rect x="416.8" y="183.8" width="8.4" height="20.3" fill="#bf6cb0" shape-rendering="crispEdges"/>
      <rect x="425.2" y="183.8" width="8.4" height="20.3" fill="#bc6bb4" shape-rendering="crispEdges"/>
      <rect x="433.6" y="183.8" width="8.4" height="20.3" fill="#b96ab7" shape-rendering="crispEdges"/>
      <rect x="442" y="183.8" width="8.4" height="20.3" fill="#b568bb" shape-rendering="crispEdges"/>
      <rect x="450.4" y="183.8" width="8.4" height="20.3" fill="#b267be" shape-rendering="crispEdges"/>
      <rect x="458.8" y="183.8" width="8.4" height="20.3" fill="#af65c2" shape-rendering="crispEdges"/>
      <rect x="467.2" y="183.8" width="8.4" height="20.3" fill="#ac64c5" shape-rendering="crispEdges"/>
      <rect x="475.6" y="183.8" width="8.4" height="20.3" fill="#a962c9" shape-rendering="crispEdges"/>
      <rect x="484" y="183.8" width="8.4" height="20.3" fill="#a660cc" shape-rendering="crispEdges"/>
      <rect x="492.4" y="183.8" width="8.4" height="20.3" fill="#a35ecf" shape-rendering="crispEdges"/>
      <rect x="500.8" y="183.8" width="8.4" height="20.3" fill="#a05cd3" shape-rendering="crispEdges"/>
      <rect x="509.2" y="183.8" width="8.4" height="20.3" fill="#9d5ad6" shape-rendering="crispEdges"/>
      <rect x="517.6" y="183.8" width="8.4" height="20.3" fill="#9a58d9" shape-rendering="crispEdges"/>
      <rect x="526" y="183.8" width="8.4" height="20.3" fill="#9855dd" shape-rendering="crispEdges"/>
      <rect x="534.4" y="183.8" width="8.4" height="20.3" fill="#9553e0" shape-rendering="crispEdges"/>
      <rect x="542.8" y="183.8" width="8.4" height="20.3" fill="#9250e3" shape-rendering="crispEdges"/>
      <rect x="551.2" y="183.8" width="8.4" height="20.3" fill="#8f4de6" shape-rendering="crispEdges"/>
      <rect x="559.6" y="183.8" width="8.4" height="20.3" fill="#8d4ae9" shape-rendering="crispEdges"/>
      <rect x="568" y="183.8" width="8.4" height="20.3" fill="#8a47ec" shape-rendering="crispEdges"/>
      <rect x="576.4" y="183.8" width="8.4" height="20.3" fill="#8843f0" shape-rendering="crispEdges"/>
      <rect x="584.8" y="183.8" width="8.4" height="20.3" fill="#8540f3" shape-rendering="crispEdges"/>
      <rect x="593.2" y="183.8" width="8.4" height="20.3" fill="#833bf6" shape-rendering="crispEdges"/>
      <rect x="601.6" y="183.8" width="8.4" height="20.3" fill="#8037f9" shape-rendering="crispEdges"/>
      <rect x="610" y="183.8" width="8.4" height="20.3" fill="#7e31fc" shape-rendering="crispEdges"/>
      <rect x="618.4" y="183.8" width="8.4" height="20.3" fill="#7c2bff" shape-rendering="crispEdges"/>
      <rect x="257.2" y="204.1" width="8.4" height="20.3" fill="#ff7a59" shape-rendering="crispEdges"/>
      <rect x="265.6" y="204.1" width="8.4" height="20.3" fill="#ff775c" shape-rendering="crispEdges"/>
      <rect x="274" y="204.1" width="8.4" height="20.3" fill="#ff735f" shape-rendering="crispEdges"/>
      <rect x="282.4" y="204.1" width="8.4" height="20.3" fill="#ff7062" shape-rendering="crispEdges"/>
      <rect x="290.8" y="204.1" width="8.4" height="20.3" fill="#fe6d66" shape-rendering="crispEdges"/>
      <rect x="299.2" y="204.1" width="8.4" height="20.3" fill="#fe6969" shape-rendering="crispEdges"/>
      <rect x="307.6" y="204.1" width="8.4" height="20.3" fill="#fd666d" shape-rendering="crispEdges"/>
      <rect x="316" y="204.1" width="8.4" height="20.3" fill="#fc6370" shape-rendering="crispEdges"/>
      <rect x="324.4" y="204.1" width="8.4" height="20.3" fill="#fb6074" shape-rendering="crispEdges"/>
      <rect x="332.8" y="204.1" width="8.4" height="20.3" fill="#fa5d78" shape-rendering="crispEdges"/>
      <rect x="341.2" y="204.1" width="8.4" height="20.3" fill="#f95a7c" shape-rendering="crispEdges"/>
      <rect x="349.6" y="204.1" width="8.4" height="20.3" fill="#f85780" shape-rendering="crispEdges"/>
      <rect x="358" y="204.1" width="8.4" height="20.3" fill="#f65484" shape-rendering="crispEdges"/>
      <rect x="366.4" y="204.1" width="8.4" height="20.3" fill="#f45288" shape-rendering="crispEdges"/>
      <rect x="374.8" y="204.1" width="8.4" height="20.3" fill="#f24f8d" shape-rendering="crispEdges"/>
      <rect x="383.2" y="204.1" width="8.4" height="20.3" fill="#f04d91" shape-rendering="crispEdges"/>
      <rect x="391.6" y="204.1" width="8.4" height="20.3" fill="#ee4a95" shape-rendering="crispEdges"/>
      <rect x="400" y="204.1" width="8.4" height="20.3" fill="#ec489a" shape-rendering="crispEdges"/>
      <rect x="408.4" y="204.1" width="8.4" height="20.3" fill="#e9469e" shape-rendering="crispEdges"/>
      <rect x="416.8" y="204.1" width="8.4" height="20.3" fill="#e744a2" shape-rendering="crispEdges"/>
      <rect x="425.2" y="204.1" width="8.4" height="20.3" fill="#e442a7" shape-rendering="crispEdges"/>
      <rect x="433.6" y="204.1" width="8.4" height="20.3" fill="#e140ab" shape-rendering="crispEdges"/>
      <rect x="442" y="204.1" width="8.4" height="20.3" fill="#de3fb0" shape-rendering="crispEdges"/>
      <rect x="450.4" y="204.1" width="8.4" height="20.3" fill="#db3db4" shape-rendering="crispEdges"/>
      <rect x="458.8" y="204.1" width="8.4" height="20.3" fill="#d73bb9" shape-rendering="crispEdges"/>
      <rect x="467.2" y="204.1" width="8.4" height="20.3" fill="#d43abd" shape-rendering="crispEdges"/>
      <rect x="475.6" y="204.1" width="8.4" height="20.3" fill="#d039c1" shape-rendering="crispEdges"/>
      <rect x="484" y="204.1" width="8.4" height="20.3" fill="#cc38c6" shape-rendering="crispEdges"/>
      <rect x="492.4" y="204.1" width="8.4" height="20.3" fill="#c836ca" shape-rendering="crispEdges"/>
      <rect x="500.8" y="204.1" width="8.4" height="20.3" fill="#c435ce" shape-rendering="crispEdges"/>
      <rect x="509.2" y="204.1" width="8.4" height="20.3" fill="#c034d2" shape-rendering="crispEdges"/>
      <rect x="517.6" y="204.1" width="8.4" height="20.3" fill="#bb33d7" shape-rendering="crispEdges"/>
      <rect x="526" y="204.1" width="8.4" height="20.3" fill="#b732db" shape-rendering="crispEdges"/>
      <rect x="534.4" y="204.1" width="8.4" height="20.3" fill="#b232df" shape-rendering="crispEdges"/>
      <rect x="542.8" y="204.1" width="8.4" height="20.3" fill="#ad31e2" shape-rendering="crispEdges"/>
      <rect x="551.2" y="204.1" width="8.4" height="20.3" fill="#a830e6" shape-rendering="crispEdges"/>
      <rect x="559.6" y="204.1" width="8.4" height="20.3" fill="#a32fea" shape-rendering="crispEdges"/>
      <rect x="568" y="204.1" width="8.4" height="20.3" fill="#9e2eed" shape-rendering="crispEdges"/>
      <rect x="576.4" y="204.1" width="8.4" height="20.3" fill="#992ef1" shape-rendering="crispEdges"/>
      <rect x="584.8" y="204.1" width="8.4" height="20.3" fill="#932df4" shape-rendering="crispEdges"/>
      <rect x="593.2" y="204.1" width="8.4" height="20.3" fill="#8e2cf7" shape-rendering="crispEdges"/>
      <rect x="601.6" y="204.1" width="8.4" height="20.3" fill="#882cfa" shape-rendering="crispEdges"/>
      <rect x="610" y="204.1" width="8.4" height="20.3" fill="#822bfd" shape-rendering="crispEdges"/>
      <rect x="618.4" y="204.1" width="8.4" height="20.3" fill="#7c2bff" shape-rendering="crispEdges"/>
      <rect x="257.2" y="224.4" width="8.4" height="20.3" fill="#ff7a59" shape-rendering="crispEdges"/>
      <rect x="265.6" y="224.4" width="8.4" height="20.3" fill="#fc785d" shape-rendering="crispEdges"/>
      <rect x="274" y="224.4" width="8.4" height="20.3" fill="#f97661" shape-rendering="crispEdges"/>
      <rect x="282.4" y="224.4" width="8.4" height="20.3" fill="#f67465" shape-rendering="crispEdges"/>
      <rect x="290.8" y="224.4" width="8.4" height="20.3" fill="#f37368" shape-rendering="crispEdges"/>
      <rect x="299.2" y="224.4" width="8.4" height="20.3" fill="#f0716c" shape-rendering="crispEdges"/>
      <rect x="307.6" y="224.4" width="8.4" height="20.3" fill="#ed6f70" shape-rendering="crispEdges"/>
      <rect x="316" y="224.4" width="8.4" height="20.3" fill="#ea6d74" shape-rendering="crispEdges"/>
      <rect x="324.4" y="224.4" width="8.4" height="20.3" fill="#e76b78" shape-rendering="crispEdges"/>
      <rect x="332.8" y="224.4" width="8.4" height="20.3" fill="#e4697c" shape-rendering="crispEdges"/>
      <rect x="341.2" y="224.4" width="8.4" height="20.3" fill="#e16880" shape-rendering="crispEdges"/>
      <rect x="349.6" y="224.4" width="8.4" height="20.3" fill="#dd6683" shape-rendering="crispEdges"/>
      <rect x="358" y="224.4" width="8.4" height="20.3" fill="#da6487" shape-rendering="crispEdges"/>
      <rect x="366.4" y="224.4" width="8.4" height="20.3" fill="#d7628b" shape-rendering="crispEdges"/>
      <rect x="374.8" y="224.4" width="8.4" height="20.3" fill="#d4608f" shape-rendering="crispEdges"/>
      <rect x="383.2" y="224.4" width="8.4" height="20.3" fill="#d15e93" shape-rendering="crispEdges"/>
      <rect x="391.6" y="224.4" width="8.4" height="20.3" fill="#ce5d97" shape-rendering="crispEdges"/>
      <rect x="400" y="224.4" width="8.4" height="20.3" fill="#cb5b9b" shape-rendering="crispEdges"/>
      <rect x="408.4" y="224.4" width="8.4" height="20.3" fill="#c8599e" shape-rendering="crispEdges"/>
      <rect x="416.8" y="224.4" width="8.4" height="20.3" fill="#c557a2" shape-rendering="crispEdges"/>
      <rect x="425.2" y="224.4" width="8.4" height="20.3" fill="#c255a6" shape-rendering="crispEdges"/>
      <rect x="433.6" y="224.4" width="8.4" height="20.3" fill="#bf53aa" shape-rendering="crispEdges"/>
      <rect x="442" y="224.4" width="8.4" height="20.3" fill="#bc52ae" shape-rendering="crispEdges"/>
      <rect x="450.4" y="224.4" width="8.4" height="20.3" fill="#b950b2" shape-rendering="crispEdges"/>
      <rect x="458.8" y="224.4" width="8.4" height="20.3" fill="#b64eb6" shape-rendering="crispEdges"/>
      <rect x="467.2" y="224.4" width="8.4" height="20.3" fill="#b34cba" shape-rendering="crispEdges"/>
      <rect x="475.6" y="224.4" width="8.4" height="20.3" fill="#b04abd" shape-rendering="crispEdges"/>
      <rect x="484" y="224.4" width="8.4" height="20.3" fill="#ad48c1" shape-rendering="crispEdges"/>
      <rect x="492.4" y="224.4" width="8.4" height="20.3" fill="#aa47c5" shape-rendering="crispEdges"/>
      <rect x="500.8" y="224.4" width="8.4" height="20.3" fill="#a745c9" shape-rendering="crispEdges"/>
      <rect x="509.2" y="224.4" width="8.4" height="20.3" fill="#a443cd" shape-rendering="crispEdges"/>
      <rect x="517.6" y="224.4" width="8.4" height="20.3" fill="#a141d1" shape-rendering="crispEdges"/>
      <rect x="526" y="224.4" width="8.4" height="20.3" fill="#9e3fd5" shape-rendering="crispEdges"/>
      <rect x="534.4" y="224.4" width="8.4" height="20.3" fill="#9a3dd8" shape-rendering="crispEdges"/>
      <rect x="542.8" y="224.4" width="8.4" height="20.3" fill="#973cdc" shape-rendering="crispEdges"/>
      <rect x="551.2" y="224.4" width="8.4" height="20.3" fill="#943ae0" shape-rendering="crispEdges"/>
      <rect x="559.6" y="224.4" width="8.4" height="20.3" fill="#9138e4" shape-rendering="crispEdges"/>
      <rect x="568" y="224.4" width="8.4" height="20.3" fill="#8e36e8" shape-rendering="crispEdges"/>
      <rect x="576.4" y="224.4" width="8.4" height="20.3" fill="#8b34ec" shape-rendering="crispEdges"/>
      <rect x="584.8" y="224.4" width="8.4" height="20.3" fill="#8832f0" shape-rendering="crispEdges"/>
      <rect x="593.2" y="224.4" width="8.4" height="20.3" fill="#8531f3" shape-rendering="crispEdges"/>
      <rect x="601.6" y="224.4" width="8.4" height="20.3" fill="#822ff7" shape-rendering="crispEdges"/>
      <rect x="610" y="224.4" width="8.4" height="20.3" fill="#7f2dfb" shape-rendering="crispEdges"/>
      <rect x="618.4" y="224.4" width="8.4" height="20.3" fill="#7c2bff" shape-rendering="crispEdges"/>
      <rect x="257.2" y="244.7" width="8.4" height="20.3" fill="#ff875f" shape-rendering="crispEdges"/>
      <rect x="265.6" y="244.7" width="8.4" height="20.3" fill="#ff875f" shape-rendering="crispEdges"/>
      <rect x="274" y="244.7" width="8.4" height="20.3" fill="#ff875f" shape-rendering="crispEdges"/>
      <rect x="282.4" y="244.7" width="8.4" height="20.3" fill="#ff875f" shape-rendering="crispEdges"/>
      <rect x="290.8" y="244.7" width="8.4" height="20.3" fill="#ff875f" shape-rendering="crispEdges"/>
      <rect x="299.2" y="244.7" width="8.4" height="20.3" fill="#ff8787" shape-rendering="crispEdges"/>
      <rect x="307.6" y="244.7" width="8.4" height="20.3" fill="#d78787" shape-rendering="crispEdges"/>
      <rect x="316" y="244.7" width="8.4" height="20.3" fill="#d78787" shape-rendering="crispEdges"/>
      <rect x="324.4" y="244.7" width="8.4" height="20.3" fill="#d78787" shape-rendering="crispEdges"/>
      <rect x="332.8" y="244.7" width="8.4" height="20.3" fill="#d78787" shape-rendering="crispEdges"/>
      <rect x="341.2" y="244.7" width="8.4" height="20.3" fill="#d78787" shape-rendering="crispEdges"/>
      <rect x="349.6" y="244.7" width="8.4" height="20.3" fill="#d78787" shape-rendering="crispEdges"/>
      <rect x="358" y="244.7" width="8.4" height="20.3" fill="#d78787" shape-rendering="crispEdges"/>
      <rect x="366.4" y="244.7" width="8.4" height="20.3" fill="#d75f87" shape-rendering="crispEdges"/>
      <rect x="374.8" y="244.7" width="8.4" height="20.3" fill="#d75faf" shape-rendering="crispEdges"/>
      <rect x="383.2" y="244.7" width="8.4" height="20.3" fill="#d75faf" shape-rendering="crispEdges"/>
      <rect x="391.6" y="244.7" width="8.4" height="20.3" fill="#d75faf" shape-rendering="crispEdges"/>
      <rect x="400" y="244.7" width="8.4" height="20.3" fill="#d75faf" shape-rendering="crispEdges"/>
      <rect x="408.4" y="244.7" width="8.4" height="20.3" fill="#af5faf" shape-rendering="crispEdges"/>
      <rect x="416.8" y="244.7" width="8.4" height="20.3" fill="#af5faf" shape-rendering="crispEdges"/>
      <rect x="425.2" y="244.7" width="8.4" height="20.3" fill="#af5faf" shape-rendering="crispEdges"/>
      <rect x="433.6" y="244.7" width="8.4" height="20.3" fill="#af5faf" shape-rendering="crispEdges"/>
      <rect x="442" y="244.7" width="8.4" height="20.3" fill="#af5faf" shape-rendering="crispEdges"/>
      <rect x="450.4" y="244.7" width="8.4" height="20.3" fill="#af5faf" shape-rendering="crispEdges"/>
      <rect x="458.8" y="244.7" width="8.4" height="20.3" fill="#af5faf" shape-rendering="crispEdges"/>
      <rect x="467.2" y="244.7" width="8.4" height="20.3" fill="#af5fd7" shape-rendering="crispEdges"/>
      <rect x="475.6" y="244.7" width="8.4" height="20.3" fill="#af5fd7" shape-rendering="crispEdges"/>
      <rect x="484" y="244.7" width="8.4" height="20.3" fill="#af5fd7" shape-rendering="crispEdges"/>
      <rect x="492.4" y="244.7" width="8.4" height="20.3" fill="#af5fd7" shape-rendering="crispEdges"/>
      <rect x="500.8" y="244.7" width="8.4" height="20.3" fill="#af5fd7" shape-rendering="crispEdges"/>
      <rect x="509.2" y="244.7" width="8.4" height="20.3" fill="#af5fd7" shape-rendering="crispEdges"/>
      <rect x="517.6" y="244.7" width="8.4" height="20.3" fill="#875fd7" shape-rendering="crispEdges"/>
      <rect x="526" y="244.7" width="8.4" height="20.3" fill="#875fd7" shape-rendering="crispEdges"/>
      <rect x="534.4" y="244.7" width="8.4" height="20.3" fill="#875fd7" shape-rendering="crispEdges"/>
      <rect x="542.8" y="244.7" width="8.4" height="20.3" fill="#875fd7" shape-rendering="crispEdges"/>
      <rect x="551.2" y="244.7" width="8.4" height="20.3" fill="#875fd7" shape-rendering="crispEdges"/>
      <rect x="559.6" y="244.7" width="8.4" height="20.3" fill="#875fd7" shape-rendering="crispEdges"/>
      <rect x="568" y="244.7" width="8.4" height="20.3" fill="#875fff" shape-rendering="crispEdges"/>
      <rect x="576.4" y="244.7" width="8.4" height="20.3" fill="#875fff" shape-rendering="crispEdges"/>
      <rect x="584.8" y="244.7" width="8.4" height="20.3" fill="#875fff" shape-rendering="crispEdges"/>
      <rect x="593.2" y="244.7" width="8.4" height="20.3" fill="#875fff" shape-rendering="crispEdges"/>
      <rect x="601.6" y="244.7" width="8.4" height="20.3" fill="#875fff" shape-rendering="crispEdges"/>
      <rect x="610" y="244.7" width="8.4" height="20.3" fill="#875fff" shape-rendering="crispEdges"/>
      <rect x="618.4" y="244.7" width="8.4" height="20.3" fill="#8700ff" shape-rendering="crispEdges"/>
      <rect x="257.2" y="265" width="8.4" height="20.3" fill="#ffa198" shape-rendering="crispEdges"/>
      <rect x="265.6" y="265" width="8.4" height="20.3" fill="#ffa198" shape-rendering="crispEdges"/>
      <rect x="274" y="265" width="8.4" height="20.3" fill="#ffa198" shape-rendering="crispEdges"/>
      <rect x="282.4" y="265" width="8.4" height="20.3" fill="#ffa198" shape-rendering="crispEdges"/>
      <rect x="290.8" y="265" width="8.4" height="20.3" fill="#ffa198" shape-rendering="crispEdges"/>
      <rect x="299.2" y="265" width="8.4" height="20.3" fill="#ffa198" shape-rendering="crispEdges"/>
      <rect x="307.6" y="265" width="8.4" height="20.3" fill="#ffa198" shape-rendering="crispEdges"/>
      <rect x="316" y="265" width="8.4" height="20.3" fill="#ffa198" shape-rendering="crispEdges"/>
      <rect x="324.4" y="265" width="8.4" height="20.3" fill="#ffa198" shape-rendering="crispEdges"/>
      <rect x="332.8" y="265" width="8.4" height="20.3" fill="#ffa198" shape-rendering="crispEdges"/>
      <rect x="341.2" y="265" width="8.4" height="20.3" fill="#ffa198" shape-rendering="crispEdges"/>
      <rect x="349.6" y="265" width="8.4" height="20.3" fill="#6e7681" shape-rendering="crispEdges"/>
      <rect x="358" y="265" width="8.4" height="20.3" fill="#6e7681" shape-rendering="crispEdges"/>
      <rect x="366.4" y="265" width="8.4" height="20.3" fill="#6e7681" shape-rendering="crispEdges"/>
      <rect x="374.8" y="265" width="8.4" height="20.3" fill="#6e7681" shape-rendering="crispEdges"/>
      <rect x="383.2" y="265" width="8.4" height="20.3" fill="#6e7681" shape-rendering="crispEdges"/>
      <rect x="391.6" y="265" width="8.4" height="20.3" fill="#6e7681" shape-rendering="crispEdges"/>
      <rect x="400" y="265" width="8.4" height="20.3" fill="#6e7681" shape-rendering="crispEdges"/>
      <rect x="408.4" y="265" width="8.4" height="20.3" fill="#6e7681" shape-rendering="crispEdges"/>
      <rect x="416.8" y="265" width="8.4" height="20.3" fill="#6e7681" shape-rendering="crispEdges"/>
      <rect x="425.2" y="265" width="8.4" height="20.3" fill="#6e7681" shape-rendering="crispEdges"/>
      <rect x="433.6" y="265" width="8.4" height="20.3" fill="#6e7681" shape-rendering="crispEdges"/>
      <rect x="442" y="265" width="8.4" height="20.3" fill="#6e7681" shape-rendering="crispEdges"/>
      <rect x="450.4" y="265" width="8.4" height="20.3" fill="#6e7681" shape-rendering="crispEdges"/>
      <rect x="458.8" y="265" width="8.4" height="20.3" fill="#6e7681" shape-rendering="crispEdges"/>
      <rect x="467.2" y="265" width="8.4" height="20.3" fill="#6e7681" shape-rendering="crispEdges"/>
      <rect x="475.6" y="265" width="8.4" height="20.3" fill="#6e7681" shape-rendering="crispEdges"/>
      <rect x="484" y="265" width="8.4" height="20.3" fill="#6e7681" shape-rendering="crispEdges"/>
      <rect x="492.4" y="265" width="8.4" height="20.3" fill="#6e7681" shape-rendering="crispEdges"/>
      <rect x="500.8" y="265" width="8.4" height="20.3" fill="#6e7681" shape-rendering="crispEdges"/>
      <rect x="509.2" y="265" width="8.4" height="20.3" fill="#6e7681" shape-rendering="crispEdges"/>
      <rect x="517.6" y="265" width="8.4" height="20.3" fill="#bc8cff" shape-rendering="crispEdges"/>
      <rect x="526" y="265" width="8.4" height="20.3" fill="#bc8cff" shape-rendering="crispEdges"/>
      <rect x="534.4" y="265" width="8.4" height="20.3" fill="#bc8cff" shape-rendering="crispEdges"/>
      <rect x="542.8" y="265" width="8.4" height="20.3" fill="#bc8cff" shape-rendering="crispEdges"/>
      <rect x="551.2" y="265" width="8.4" height="20.3" fill="#bc8cff" shape-rendering="crispEdges"/>
      <rect x="559.6" y="265" width="8.4" height="20.3" fill="#bc8cff" shape-rendering="crispEdges"/>
      <rect x="568" y="265" width="8.4" height="20.3" fill="#bc8cff" shape-rendering="crispEdges"/>
      <rect x="576.4" y="265" width="8.4" height="20.3" fill="#bc8cff" shape-rendering="crispEdges"/>
      <rect x="584.8" y="265" width="8.4" height="20.3" fill="#79c0ff" shape-rendering="crispEdges"/>
      <rect x="593.2" y="265" width="8.4" height="20.3" fill="#79c0ff" shape-rendering="crispEdges"/>
      <rect x="601.6" y="265" width="8.4" height="20.3" fill="#79c0ff" shape-rendering="crispEdges"/>
      <rect x="610" y="265" width="8.4" height="20.3" fill="#79c0ff" shape-rendering="crispEdges"/>
      <rect x="618.4" y="265" width="8.4" height="20.3" fill="#79c0ff" shape-rendering="crispEdges"/>
      <rect x="257.2" y="325.9" width="8.4" height="20.3" fill="#ff7a59" shape-rendering="crispEdges"/>
      <rect x="265.6" y="325.9" width="8.4" height="20.3" fill="#fc7a5f" shape-rendering="crispEdges"/>
      <rect x="274" y="325.9" width="8.4" height="20.3" fill="#f87965" shape-rendering="crispEdges"/>
      <rect x="282.4" y="325.9" width="8.4" height="20.3" fill="#f5796b" shape-rendering="crispEdges"/>
      <rect x="290.8" y="325.9" width="8.4" height="20.3" fill="#f17970" shape-rendering="crispEdges"/>
      <rect x="299.2" y="325.9" width="8.4" height="20.3" fill="#ee7876" shape-rendering="crispEdges"/>
      <rect x="307.6" y="325.9" width="8.4" height="20.3" fill="#ea787b" shape-rendering="crispEdges"/>
      <rect x="316" y="325.9" width="8.4" height="20.3" fill="#e7777f" shape-rendering="crispEdges"/>
      <rect x="324.4" y="325.9" width="8.4" height="20.3" fill="#e37784" shape-rendering="crispEdges"/>
      <rect x="332.8" y="325.9" width="8.4" height="20.3" fill="#e07688" shape-rendering="crispEdges"/>
      <rect x="341.2" y="325.9" width="8.4" height="20.3" fill="#dd758d" shape-rendering="crispEdges"/>
      <rect x="349.6" y="325.9" width="8.4" height="20.3" fill="#d97491" shape-rendering="crispEdges"/>
      <rect x="358" y="325.9" width="8.4" height="20.3" fill="#d67495" shape-rendering="crispEdges"/>
      <rect x="366.4" y="325.9" width="8.4" height="20.3" fill="#d37399" shape-rendering="crispEdges"/>
      <rect x="374.8" y="325.9" width="8.4" height="20.3" fill="#cf729d" shape-rendering="crispEdges"/>
      <rect x="383.2" y="325.9" width="8.4" height="20.3" fill="#cc71a1" shape-rendering="crispEdges"/>
      <rect x="391.6" y="325.9" width="8.4" height="20.3" fill="#c970a5" shape-rendering="crispEdges"/>
      <rect x="400" y="325.9" width="8.4" height="20.3" fill="#c56fa9" shape-rendering="crispEdges"/>
      <rect x="408.4" y="325.9" width="8.4" height="20.3" fill="#c26ead" shape-rendering="crispEdges"/>
      <rect x="416.8" y="325.9" width="8.4" height="20.3" fill="#bf6cb0" shape-rendering="crispEdges"/>
      <rect x="425.2" y="325.9" width="8.4" height="20.3" fill="#bc6bb4" shape-rendering="crispEdges"/>
      <rect x="433.6" y="325.9" width="8.4" height="20.3" fill="#b96ab7" shape-rendering="crispEdges"/>
      <rect x="442" y="325.9" width="8.4" height="20.3" fill="#b568bb" shape-rendering="crispEdges"/>
      <rect x="450.4" y="325.9" width="8.4" height="20.3" fill="#b267be" shape-rendering="crispEdges"/>
      <rect x="458.8" y="325.9" width="8.4" height="20.3" fill="#af65c2" shape-rendering="crispEdges"/>
      <rect x="467.2" y="325.9" width="8.4" height="20.3" fill="#ac64c5" shape-rendering="crispEdges"/>
      <rect x="475.6" y="325.9" width="8.4" height="20.3" fill="#a962c9" shape-rendering="crispEdges"/>
      <rect x="484" y="325.9" width="8.4" height="20.3" fill="#a660cc" shape-rendering="crispEdges"/>
      <rect x="492.4" y="325.9" width="8.4" height="20.3" fill="#a35ecf" shape-rendering="crispEdges"/>
      <rect x="500.8" y="325.9" width="8.4" height="20.3" fill="#a05cd3" shape-rendering="crispEdges"/>
      <rect x="509.2" y="325.9" width="8.4" height="20.3" fill="#9d5ad6" shape-rendering="crispEdges"/>
      <rect x="517.6" y="325.9" width="8.4" height="20.3" fill="#9a58d9" shape-rendering="crispEdges"/>
      <rect x="526" y="325.9" width="8.4" height="20.3" fill="#9855dd" shape-rendering="crispEdges"/>
      <rect x="534.4" y="325.9" width="8.4" height="20.3" fill="#9553e0" shape-rendering="crispEdges"/>
      <rect x="542.8" y="325.9" width="8.4" height="20.3" fill="#9250e3" shape-rendering="crispEdges"/>
      <rect x="551.2" y="325.9" width="8.4" height="20.3" fill="#8f4de6" shape-rendering="crispEdges"/>
      <rect x="559.6" y="325.9" width="8.4" height="20.3" fill="#8d4ae9" shape-rendering="crispEdges"/>
      <rect x="568" y="325.9" width="8.4" height="20.3" fill="#8a47ec" shape-rendering="crispEdges"/>
      <rect x="576.4" y="325.9" width="8.4" height="20.3" fill="#8843f0" shape-rendering="crispEdges"/>
      <rect x="584.8" y="325.9" width="8.4" height="20.3" fill="#8540f3" shape-rendering="crispEdges"/>
      <rect x="593.2" y="325.9" width="8.4" height="20.3" fill="#833bf6" shape-rendering="crispEdges"/>
      <rect x="601.6" y="325.9" width="8.4" height="20.3" fill="#8037f9" shape-rendering="crispEdges"/>
      <rect x="610" y="325.9" width="8.4" height="20.3" fill="#7e31fc" shape-rendering="crispEdges"/>
      <rect x="618.4" y="325.9" width="8.4" height="20.3" fill="#7c2bff" shape-rendering="crispEdges"/>
    </g>
    <g class="text">
      <text y="76" font-family="'SF Mono', 'Monaco', 'Menlo', 'Ubuntu Mono', 'Consolas', 'Courier New', monospace" font-size="14" xml:space="preserve"><tspan x="22" fill="#f0f6fc" font-weight="bold">  every modifier returns a new gradient — the original is never touched</tspan></text>
      <text y="96.3" font-family="'SF Mono', 'Monaco', 'Menlo', 'Ubuntu Mono', 'Consolas', 'Courier New', monospace" font-size="14" xml:space="preserve"><tspan x="22" fill="#c9d1d9">  </tspan><tspan x="38.8" fill="#5ee7df">❯</tspan><tspan x="47.2" fill="#c9d1d9"> </tspan><tspan x="55.6" fill="#767676">const brand = gradient(&#39;#ff7a59&#39;, &#39;#7c2bff&#39;)</tspan></text>
      <text y="116.6" font-family="'SF Mono', 'Monaco', 'Menlo', 'Ubuntu Mono', 'Consolas', 'Courier New', monospace" font-size="14" xml:space="preserve"><tspan x="22" fill="#c9d1d9">  </tspan><tspan x="38.8" fill="#767676">chain as far as you like; nothing mutates</tspan></text>
      <text y="157.2" font-family="'SF Mono', 'Monaco', 'Menlo', 'Ubuntu Mono', 'Consolas', 'Courier New', monospace" font-size="14" xml:space="preserve"><tspan x="22" fill="#c9d1d9">  </tspan><tspan x="38.8" fill="#767676">brand                   </tspan><tspan x="240.4" fill="#c9d1d9">  </tspan></text>
      <text y="177.5" font-family="'SF Mono', 'Monaco', 'Menlo', 'Ubuntu Mono', 'Consolas', 'Courier New', monospace" font-size="14" xml:space="preserve"><tspan x="22" fill="#c9d1d9">  </tspan><tspan x="38.8" fill="#767676">brand.reverse           </tspan><tspan x="240.4" fill="#c9d1d9">  </tspan></text>
      <text y="197.8" font-family="'SF Mono', 'Monaco', 'Menlo', 'Ubuntu Mono', 'Consolas', 'Courier New', monospace" font-size="14" xml:space="preserve"><tspan x="22" fill="#c9d1d9">  </tspan><tspan x="38.8" fill="#767676">brand.reverse.reverse   </tspan><tspan x="240.4" fill="#c9d1d9">  </tspan></text>
      <text y="218.1" font-family="'SF Mono', 'Monaco', 'Menlo', 'Ubuntu Mono', 'Consolas', 'Courier New', monospace" font-size="14" xml:space="preserve"><tspan x="22" fill="#c9d1d9">  </tspan><tspan x="38.8" fill="#767676">brand.space(&quot;oklch&quot;)    </tspan><tspan x="240.4" fill="#c9d1d9">  </tspan></text>
      <text y="238.4" font-family="'SF Mono', 'Monaco', 'Menlo', 'Ubuntu Mono', 'Consolas', 'Courier New', monospace" font-size="14" xml:space="preserve"><tspan x="22" fill="#c9d1d9">  </tspan><tspan x="38.8" fill="#767676">brand.space(&quot;rgb&quot;)      </tspan><tspan x="240.4" fill="#c9d1d9">  </tspan></text>
      <text y="258.7" font-family="'SF Mono', 'Monaco', 'Menlo', 'Ubuntu Mono', 'Consolas', 'Courier New', monospace" font-size="14" xml:space="preserve"><tspan x="22" fill="#c9d1d9">  </tspan><tspan x="38.8" fill="#767676">brand.depth(&quot;ansi256&quot;)  </tspan><tspan x="240.4" fill="#c9d1d9">  </tspan></text>
      <text y="279" font-family="'SF Mono', 'Monaco', 'Menlo', 'Ubuntu Mono', 'Consolas', 'Courier New', monospace" font-size="14" xml:space="preserve"><tspan x="22" fill="#c9d1d9">  </tspan><tspan x="38.8" fill="#767676">brand.depth(&quot;ansi16&quot;)   </tspan><tspan x="240.4" fill="#c9d1d9">  </tspan></text>
      <text y="319.6" font-family="'SF Mono', 'Monaco', 'Menlo', 'Ubuntu Mono', 'Consolas', 'Courier New', monospace" font-size="14" xml:space="preserve"><tspan x="22" fill="#f0f6fc" font-weight="bold">  the base gradient, still exactly as it started</tspan></text>
      <text y="339.9" font-family="'SF Mono', 'Monaco', 'Menlo', 'Ubuntu Mono', 'Consolas', 'Courier New', monospace" font-size="14" xml:space="preserve"><tspan x="22" fill="#c9d1d9">  </tspan><tspan x="38.8" fill="#767676">brand                   </tspan><tspan x="240.4" fill="#c9d1d9">  </tspan></text>
    </g>
    <text y="400.2" font-family="'SF Mono', 'Monaco', 'Menlo', 'Ubuntu Mono', 'Consolas', 'Courier New', monospace" font-size="10" xml:space="preserve"><tspan x="530.8" fill="#767676">grfti + shellfie</tspan></text>
  </g>
</svg>